<svg width="9" height="9" viewBox="0 0 9 9" fill="none" xmlns="http://www.w3.org/2000/svg">
<g clip-path="url(#clip0_4690_640)">
<path d="M6.26 8.28896C6.07 8.28896 5.88 8.21562 5.73333 8.06896L2 4.28896L5.73333 0.508958C5.80188 0.439316 5.88361 0.384008 5.97374 0.346257C6.06387 0.308505 6.16061 0.289062 6.25833 0.289062C6.35605 0.289062 6.4528 0.308505 6.54293 0.346257C6.63306 0.384008 6.71478 0.439316 6.78333 0.508958C7.07333 0.802291 7.07333 1.27562 6.78333 1.56896L4.09667 4.28896L6.78333 7.00896C7.07333 7.30229 7.07333 7.77562 6.78333 8.06896C6.63667 8.21562 6.45 8.28896 6.26 8.28896Z" fill="#587052"/>
</g>
<defs>
<clipPath id="clip0_4690_640">
<rect width="8" height="8" fill="white" transform="translate(0.5 0.289062)"/>
</clipPath>
</defs>
</svg>
