<svg width="12" height="12" viewBox="0 0 12 12" fill="none" xmlns="http://www.w3.org/2000/svg">
<g clip-path="url(#clip0_10094_738)">
<path d="M6.693 3.00884L8.991 5.30684L3.5485 10.7493L0.5 11.4993L1.2505 8.45134L6.693 3.00884ZM11.024 0.975841C11.175 1.12667 11.2948 1.30578 11.3765 1.50293C11.4582 1.70009 11.5003 1.91142 11.5003 2.12484C11.5003 2.33826 11.4582 2.54959 11.3765 2.74675C11.2948 2.9439 11.175 3.12301 11.024 3.27384L9.875 4.42384L7.577 2.12484L8.726 0.975341C8.87683 0.824341 9.05594 0.704552 9.25309 0.622821C9.45025 0.541091 9.66158 0.499023 9.875 0.499023C10.0884 0.499023 10.2998 0.541091 10.4969 0.622821C10.6941 0.704552 10.8732 0.824341 11.024 0.975341V0.975841Z" fill="white"/>
</g>
<defs>
<clipPath id="clip0_10094_738">
<rect width="12" height="12" fill="white"/>
</clipPath>
</defs>
</svg>
