<svg width="22" height="23" viewBox="0 0 22 23" fill="none" xmlns="http://www.w3.org/2000/svg">
<path d="M2.75001 5.65641H11.9167C12.4029 5.65641 12.8692 5.46326 13.213 5.11944C13.5569 4.77562 13.75 4.30931 13.75 3.82308C13.75 3.33685 13.5569 2.87053 13.213 2.52672C12.8692 2.1829 12.4029 1.98974 11.9167 1.98974L2.75001 1.98974C2.26378 1.98974 1.79746 2.1829 1.45365 2.52672C1.10983 2.87053 0.916676 3.33685 0.916676 3.82308C0.916676 4.30931 1.10983 4.77562 1.45365 5.11944C1.79746 5.46326 2.26378 5.65641 2.75001 5.65641ZM18.3333 6.57308C19.0627 6.57308 19.7622 6.28335 20.2779 5.76762C20.7936 5.2519 21.0833 4.55242 21.0833 3.82308C21.0833 3.09373 20.7936 2.39426 20.2779 1.87853C19.7622 1.36281 19.0627 1.07308 18.3333 1.07308C17.604 1.07308 16.9045 1.36281 16.3888 1.87853C15.8731 2.39426 15.5833 3.09373 15.5833 3.82308C15.5833 4.55242 15.8731 5.2519 16.3888 5.76762C16.9045 6.28335 17.604 6.57308 18.3333 6.57308ZM2.75001 12.9897H11.9167C12.4029 12.9897 12.8692 12.7966 13.213 12.4528C13.5569 12.109 13.75 11.6426 13.75 11.1564C13.75 10.6702 13.5569 10.2039 13.213 9.86005C12.8692 9.51623 12.4029 9.32308 11.9167 9.32308H2.75001C2.26378 9.32308 1.79746 9.51623 1.45365 9.86005C1.10983 10.2039 0.916676 10.6702 0.916676 11.1564C0.916676 11.6426 1.10983 12.109 1.45365 12.4528C1.79746 12.7966 2.26378 12.9897 2.75001 12.9897ZM18.3333 13.9064C19.0627 13.9064 19.7622 13.6167 20.2779 13.101C20.7936 12.5852 21.0833 11.8858 21.0833 11.1564C21.0833 10.4271 20.7936 9.72759 20.2779 9.21187C19.7622 8.69614 19.0627 8.40641 18.3333 8.40641C17.604 8.40641 16.9045 8.69614 16.3888 9.21187C15.8731 9.72759 15.5833 10.4271 15.5833 11.1564C15.5833 11.8858 15.8731 12.5852 16.3888 13.101C16.9045 13.6167 17.604 13.9064 18.3333 13.9064ZM11.9167 16.6564L2.75001 16.6564C2.26378 16.6564 1.79746 16.8496 1.45365 17.1934C1.10983 17.5372 0.916676 18.0035 0.916676 18.4897C0.916676 18.976 1.10983 19.4423 1.45365 19.7861C1.79746 20.1299 2.26378 20.3231 2.75001 20.3231L11.9167 20.3231C12.4029 20.3231 12.8692 20.1299 13.213 19.7861C13.5569 19.4423 13.75 18.976 13.75 18.4897C13.75 18.0035 13.5569 17.5372 13.213 17.1934C12.8692 16.8496 12.4029 16.6564 11.9167 16.6564ZM15.5833 18.4897C15.5833 18.1286 15.6545 17.771 15.7927 17.4374C15.9309 17.1037 16.1334 16.8006 16.3888 16.5452C16.6442 16.2898 16.9473 16.0873 17.281 15.9491C17.6146 15.8109 17.9722 15.7397 18.3333 15.7397C18.6945 15.7397 19.0521 15.8109 19.3857 15.9491C19.7194 16.0873 20.0225 16.2898 20.2779 16.5452C20.5332 16.8006 20.7358 17.1037 20.874 17.4374C21.0122 17.771 21.0833 18.1286 21.0833 18.4897C21.0833 19.2191 20.7936 19.9186 20.2779 20.4343C19.7622 20.95 19.0627 21.2397 18.3333 21.2397C17.604 21.2397 16.9045 20.95 16.3888 20.4343C15.8731 19.9186 15.5833 19.2191 15.5833 18.4897Z" fill="#191919"/>
</svg>
