<svg width="23" height="24" viewBox="0 0 23 24" fill="none" xmlns="http://www.w3.org/2000/svg">
<path d="M13.3564 18.676C14.7858 17.2465 15.2632 15.1363 14.782 13.3135L18.8488 9.05192L21.6389 8.79698L21.6226 8.77979C21.6678 8.78803 21.7142 8.78531 21.7581 8.77185C21.802 8.75839 21.842 8.73458 21.8747 8.70245C21.9023 8.67517 21.9242 8.64272 21.9392 8.60694C21.9542 8.57117 21.9619 8.53279 21.962 8.49401C21.9621 8.45522 21.9545 8.41681 21.9397 8.38096C21.9249 8.34512 21.9031 8.31257 21.8757 8.28517L15.0198 1.42831C14.9641 1.37305 14.8889 1.34211 14.8104 1.34229C14.732 1.34246 14.6569 1.37375 14.6015 1.42927C14.5696 1.46234 14.5459 1.50252 14.5325 1.5465C14.519 1.59048 14.5162 1.63702 14.5242 1.68231L14.508 1.66512L14.253 4.45618L9.99051 8.52293C8.16768 8.04073 6.05743 8.51911 4.62801 9.94758L8.26507 13.5847L3.17375 18.676C2.44615 19.4036 0.6787 21.4976 0.991894 22.313C1.80639 22.6262 3.90136 20.8578 4.62801 20.1302L9.71933 15.0389L13.3564 18.676Z" fill="#262626"/>
</svg>
