<svg width="16" height="16" viewBox="0 0 16 16" fill="none" xmlns="http://www.w3.org/2000/svg">
<path d="M7.69433 11.75H9.19433V8.75H12.1943V7.25H9.19433V4.25H7.69433V7.25H4.69434V8.75H7.69433V11.75ZM8.44433 15.5C7.40684 15.5 6.43184 15.3062 5.51934 14.9187C4.60684 14.5187 3.81309 13.9812 3.13809 13.3062C2.46309 12.6312 1.92559 11.8375 1.52559 10.925C1.13809 10.0125 0.944336 9.0375 0.944336 8C0.944336 6.9625 1.13809 5.9875 1.52559 5.075C1.92559 4.1625 2.46309 3.36875 3.13809 2.69375C3.81309 2.01875 4.60684 1.4875 5.51934 1.1C6.43184 0.7 7.40684 0.5 8.44433 0.5C9.48184 0.5 10.4568 0.7 11.3693 1.1C12.2818 1.4875 13.0756 2.01875 13.7506 2.69375C14.4256 3.36875 14.9568 4.1625 15.3443 5.075C15.7443 5.9875 15.9443 6.9625 15.9443 8C15.9443 9.0375 15.7443 10.0125 15.3443 10.925C14.9568 11.8375 14.4256 12.6312 13.7506 13.3062C13.0756 13.9812 12.2818 14.5187 11.3693 14.9187C10.4568 15.3062 9.48184 15.5 8.44433 15.5ZM8.44433 14C10.1193 14 11.5381 13.4187 12.7006 12.2562C13.8631 11.0937 14.4443 9.675 14.4443 8C14.4443 6.325 13.8631 4.90625 12.7006 3.74375C11.5381 2.58125 10.1193 2 8.44433 2C6.76934 2 5.35059 2.58125 4.18809 3.74375C3.02559 4.90625 2.44434 6.325 2.44434 8C2.44434 9.675 3.02559 11.0937 4.18809 12.2562C5.35059 13.4187 6.76934 14 8.44433 14Z" fill="white"/>
</svg>
