<svg width="22" height="21" viewBox="0 0 22 21" fill="none" xmlns="http://www.w3.org/2000/svg">
<path d="M1 0.422852C0.734784 0.422852 0.48043 0.528208 0.292893 0.715745C0.105357 0.903281 0 1.15764 0 1.42285V12.4229C0 12.6881 0.105357 12.9424 0.292893 13.13C0.48043 13.3175 0.734784 13.4229 1 13.4229H9C9.26522 13.4229 9.51957 13.3175 9.70711 13.13C9.89464 12.9424 10 12.6881 10 12.4229V1.42285C10 1.15764 9.89464 0.903281 9.70711 0.715745C9.51957 0.528208 9.26522 0.422852 9 0.422852H1ZM13 10.4229C12.7348 10.4229 12.4804 10.5282 12.2929 10.7157C12.1054 10.9033 12 11.1576 12 11.4229V21.4229C12 21.6881 12.1054 21.9424 12.2929 22.13C12.4804 22.3175 12.7348 22.4229 13 22.4229H21C21.2652 22.4229 21.5196 22.3175 21.7071 22.13C21.8946 21.9424 22 21.6881 22 21.4229V11.4229C22 11.1576 21.8946 10.9033 21.7071 10.7157C21.5196 10.5282 21.2652 10.4229 21 10.4229H13ZM0 21.4229C0 21.6881 0.105357 21.9424 0.292893 22.13C0.48043 22.3175 0.734784 22.4229 1 22.4229H9C9.26522 22.4229 9.51957 22.3175 9.70711 22.13C9.89464 21.9424 10 21.6881 10 21.4229V16.4229C10 16.1576 9.89464 15.9033 9.70711 15.7157C9.51957 15.5282 9.26522 15.4229 9 15.4229H1C0.734784 15.4229 0.48043 15.5282 0.292893 15.7157C0.105357 15.9033 0 16.1576 0 16.4229V21.4229ZM13 0.422852C12.7348 0.422852 12.4804 0.528208 12.2929 0.715745C12.1054 0.903281 12 1.15764 12 1.42285V7.42285C12 7.68807 12.1054 7.94242 12.2929 8.12996C12.4804 8.31749 12.7348 8.42285 13 8.42285H21C21.2652 8.42285 21.5196 8.31749 21.7071 8.12996C21.8946 7.94242 22 7.68807 22 7.42285V1.42285C22 1.15764 21.8946 0.903281 21.7071 0.715745C21.5196 0.528208 21.2652 0.422852 21 0.422852H13Z" fill="#262626"/>
</svg>
