<svg width="22" height="22" viewBox="0 0 22 22" fill="none" xmlns="http://www.w3.org/2000/svg">
<g clip-path="url(#clip0_4747_684)">
<path d="M3.5 5.75635C3.5 5.09331 3.76339 4.45742 4.23223 3.98858C4.70107 3.51974 5.33696 3.25635 6 3.25635H16C16.663 3.25635 17.2989 3.51974 17.7678 3.98858C18.2366 4.45742 18.5 5.09331 18.5 5.75635V20.2813C18.5002 20.5773 18.4217 20.868 18.2724 21.1235C18.1231 21.3791 17.9084 21.5903 17.6504 21.7354C17.3925 21.8805 17.1005 21.9543 16.8046 21.9492C16.5087 21.9441 16.2195 21.8602 15.9667 21.7063L11 18.673L6.03333 21.7063C5.78113 21.8599 5.49267 21.9437 5.19746 21.9491C4.90225 21.9546 4.61089 21.8815 4.35319 21.7374C4.09548 21.5933 3.88069 21.3833 3.73078 21.1289C3.58087 20.8746 3.50123 20.5849 3.5 20.2897V5.75635Z" fill="#262626"/>
</g>
<defs>
<clipPath id="clip0_4747_684">
<rect width="22" height="22" fill="white"/>
</clipPath>
</defs>
</svg>
