<svg width="20" height="20" viewBox="0 0 20 20" fill="none" xmlns="http://www.w3.org/2000/svg">
<path d="M2.5 3.3335C2.5 2.67045 2.76339 2.03457 3.23223 1.56573C3.70107 1.09689 4.33696 0.833496 5 0.833496H15C15.663 0.833496 16.2989 1.09689 16.7678 1.56573C17.2366 2.03457 17.5 2.67045 17.5 3.3335V17.8585C17.5002 18.1545 17.4217 18.4452 17.2724 18.7007C17.1231 18.9562 16.9084 19.1674 16.6504 19.3125C16.3925 19.4576 16.1005 19.5314 15.8046 19.5263C15.5087 19.5212 15.2195 19.4374 14.9667 19.2835L10 16.2502L5.03333 19.2835C4.78113 19.437 4.49267 19.5208 4.19746 19.5263C3.90225 19.5317 3.61089 19.4587 3.35319 19.3146C3.09548 19.1704 2.88069 18.9605 2.73078 18.7061C2.58087 18.4517 2.50123 18.1621 2.5 17.8668V3.3335Z" fill="#191919"/>
</svg>
