<svg width="15" height="20" viewBox="0 0 15 20" fill="none" xmlns="http://www.w3.org/2000/svg">
<path d="M2.5 16.6283V2.67479H12.5V16.6283L7.5 13.3561L2.5 16.6283ZM7.5 16.4945L12.4667 19.7399C12.7189 19.9042 13.0073 19.9939 13.3025 19.9997C13.5977 20.0055 13.8891 19.9274 14.1468 19.7732C14.4045 19.619 14.6193 19.3943 14.7692 19.1222C14.9191 18.85 14.9988 18.5401 15 18.2242V2.67479C15 1.96539 14.7366 1.28505 14.2678 0.783428C13.7989 0.281807 13.163 0 12.5 0H2.5C1.83696 0 1.20107 0.281807 0.732234 0.783428C0.263393 1.28505 5.79737e-07 1.96539 5.79737e-07 2.67479V18.2153C-0.000246241 18.532 0.0783233 18.843 0.227633 19.1164C0.376944 19.3898 0.591609 19.6157 0.849565 19.771C1.10752 19.9262 1.39946 20.0052 1.69538 19.9997C1.9913 19.9943 2.28053 19.9046 2.53333 19.7399L7.5 16.4945Z" fill="#EA5A69"/>
</svg>
