<svg width="22" height="22" viewBox="0 0 22 22" fill="none" xmlns="http://www.w3.org/2000/svg">
<path d="M17.4168 9.62516C17.4168 11.1662 16.9599 12.6726 16.1037 13.954C15.2475 15.2353 14.0306 16.234 12.6069 16.8237C11.1832 17.4135 9.61652 17.5678 8.10509 17.2671C6.59365 16.9665 5.20531 16.2244 4.11563 15.1347C3.02594 14.045 2.28386 12.6567 1.98321 11.1452C1.68257 9.63381 1.83687 8.06716 2.4266 6.64342C3.01634 5.21968 4.01502 4.00279 5.29635 3.14663C6.57768 2.29047 8.08412 1.8335 9.62517 1.8335C11.6916 1.8335 13.6735 2.6544 15.1347 4.11562C16.5959 5.57684 17.4168 7.55868 17.4168 9.62516Z" stroke="#262626" stroke-width="2" stroke-linecap="round" stroke-linejoin="round"/>
<path d="M15.1353 15.135L20.1668 20.1666" stroke="#262626" stroke-width="2" stroke-linecap="round" stroke-linejoin="round"/>
</svg>
