<svg width="22" height="22" viewBox="0 0 22 22" fill="none" xmlns="http://www.w3.org/2000/svg">
<g clip-path="url(#clip0_4747_691)">
<path d="M16.4998 11.4583C16.3192 11.4583 16.1404 11.4226 15.9735 11.3535C15.8067 11.2843 15.6551 11.1829 15.5274 11.0551C15.3997 10.9274 15.2984 10.7757 15.2294 10.6088C15.1603 10.4419 15.1248 10.263 15.1248 10.0824C15.1249 9.90179 15.1605 9.72294 15.2297 9.55609C15.2989 9.38923 15.4003 9.23764 15.528 9.10995C15.6558 8.98227 15.8075 8.88101 15.9744 8.81194C16.1413 8.74287 16.3201 8.70736 16.5008 8.70742C16.8655 8.70754 17.2154 8.85257 17.4732 9.1106C17.7311 9.36864 17.8759 9.71854 17.8758 10.0833C17.8756 10.4481 17.7306 10.7979 17.4726 11.0558C17.2145 11.3137 16.8646 11.4585 16.4998 11.4583ZM10.9998 11.4583C10.635 11.4582 10.2852 11.3132 10.0274 11.0551C9.76951 10.7971 9.62472 10.4472 9.62484 10.0824C9.62496 9.71762 9.76999 9.36782 10.028 9.10995C10.2861 8.85209 10.636 8.70729 11.0008 8.70742C11.3655 8.70754 11.7154 8.85257 11.9732 9.1106C12.2311 9.36864 12.3759 9.71854 12.3758 10.0833C12.3756 10.4481 12.2306 10.7979 11.9726 11.0558C11.7145 11.3137 11.3646 11.4585 10.9998 11.4583ZM5.49984 11.4583C5.13504 11.4582 4.78524 11.3132 4.52738 11.0551C4.26951 10.7971 4.12472 10.4472 4.12484 10.0824C4.12496 9.71762 4.26999 9.36782 4.52802 9.10995C4.78606 8.85209 5.13596 8.70729 5.50075 8.70742C5.86555 8.70754 6.21535 8.85257 6.47322 9.1106C6.73108 9.36864 6.87588 9.71854 6.87575 10.0833C6.87563 10.4481 6.7306 10.7979 6.47257 11.0558C6.21453 11.3137 5.86463 11.4585 5.49984 11.4583ZM10.9998 0C5.43109 0 0.916504 4.51458 0.916504 10.0833C0.916504 12.5153 1.77817 14.7455 3.21184 16.4872L1.83317 22L6.7245 19.2051C8.0612 19.8372 9.52123 20.1655 10.9998 20.1667C16.5686 20.1667 21.0832 15.6521 21.0832 10.0833C21.0832 4.51458 16.5686 0 10.9998 0Z" fill="#262626"/>
</g>
<defs>
<clipPath id="clip0_4747_691">
<rect width="22" height="22" fill="white"/>
</clipPath>
</defs>
</svg>
